{"title":"Right Now, Wrong Then [Sang-soo Hong, 2015] 720p XviD-MP3","uid":13643718,"size":2900796926,"categoryP":"video","categoryS":"hd___movies","magnet":"?xt=urn:btih:baab1fea2828bae716f477a04e05050081cf4001&amp;dn=Right+Now%2C+Wrong+Then+%5BSang-soo+Hong%2C+2015%5D+720p+XviD-MP3&amp;tr=udp%3A%2F%2Ftracker.leechers-paradise.org%3A6969&amp;tr=udp%3A%2F%2Fzer0day.ch%3A1337&amp;tr=udp%3A%2F%2Fopen.demonii.com%3A1337&amp;tr=udp%3A%2F%2Ftracker.coppersurfer.tk%3A6969&amp;tr=udp%3A%2F%2Fexodus.desync.com%3A6969","seeders":64,"leechers":9,"uploader":null,"files":1,"time":1456147387,"description":"General\r\nComplete name                            : C:Right.Now.Wrong.Then.2015.720p.HDRip.XviD-MPEG4.avi\r\nFormat                                   : AVI\r\nFormat/Info                              : Audio Video Interleave\r\nFormat profile                           : OpenDML\r\nFile size                                : 2.70 GiB\r\nDuration                                 : 2h 0mn\r\nOverall bit rate                         : 3 199 Kbps\r\nWriting library                          : VirtualDub-MPEG2 build 24586/release\r\n\r\nVideo\r\nID                                       : 0\r\nFormat                                   : MPEG-4 Visual\r\nFormat profile                           : Advanced   \r\nFormat settings, BVOP                    : 2\r\nFormat settings, QPel                    : No\r\nFormat settings, GMC                     : No warppoints\r\nFormat settings, Matrix                  : Default (H.263)\r\nMuxing mode                              : Packed bitstream\r\nCodec ID                                 : XVID\r\nCodec ID/Hint                            : XviD\r\nDuration                                 : 2h 0mn\r\nBit rate                                 : 2 993 Kbps\r\nWidth                                    : 1 280 pixels\r\nHeight                                   : 720 pixels\r\nDisplay aspect ratio                     : 16:9\r\nFrame rate                               : 29.970 fps\r\nColor space                              : YUV\r\nChroma subsampling                       : 4:2:0\r\nBit depth                                : 8 bits\r\nScan type                                : Progressive\r\nCompression mode                         : Lossy\r\nBits/(Pixel*Frame)                       : 0.108\r\nStream size                              : 2.53 GiB (94%)\r\nWriting library                          : XviD 66\r\n\r\nAudio\r\nID                                       : 1\r\nFormat                                   : MPEG Audio\r\nFormat version                           : Version 1\r\nFormat profile                           : Layer 3\r\nMode                                     : Joint stereo\r\nCodec ID                                 : 55\r\nCodec ID/Hint                            : MP3\r\nDuration                                 : 2h 0mn\r\nBit rate mode                            : Constant\r\nBit rate                                 : 192 Kbps\r\nChannel(s)                               : 2 channels\r\nSampling rate                            : 48.0 KHz\r\nCompression mode                         : Lossy\r\nStream size                              : 166 MiB (6%)\r\nAlignment                                : Split accross interleaves\r\nInterleave, duration                     : 33 ms (1.00 video frame)\r\nInterleave, preload duration             : 500 ms\r\n\r\n\r\nSynchronized English subtitles are available on dailysubs(dot)net or opensubtitles(dot)org","torrent":{"xt":"urn:btih:baab1fea2828bae716f477a04e05050081cf4001","amp;dn":"Right+Now%2C+Wrong+Then+%5BSang-soo+Hong%2C+2015%5D+720p+XviD-MP3","amp;tr":["udp%3A%2F%2Ftracker.leechers-paradise.org%3A6969","udp%3A%2F%2Fzer0day.ch%3A1337","udp%3A%2F%2Fopen.demonii.com%3A1337","udp%3A%2F%2Ftracker.coppersurfer.tk%3A6969","udp%3A%2F%2Fexodus.desync.com%3A6969"],"infoHash":"baab1fea2828bae716f477a04e05050081cf4001","infoHashBuffer":{"type":"Buffer","data":[186,171,31,234,40,40,186,231,22,244,119,160,78,5,5,0,129,207,64,1]},"announce":[],"urlList":[]}}